<svg xmlns="http://www.w3.org/2000/svg" viewBox="0 0 600 320" width="600" height="320">
<style>text { font-family: system-ui, -apple-system, sans-serif; }</style>
<defs><marker id="arrowhead" markerWidth="10" markerHeight="7" refX="9" refY="3.5" orient="auto"><polygon points="0 0, 10 3.5, 0 7" fill="#64748b"/></marker></defs><text x="300" y="28" font-size="18" font-weight="700" fill="#1e293b" font-family="system-ui, sans-serif" text-anchor="middle">浏览器缓存 — 再次请求</text><rect x="40" y="55" width="140" height="45" rx="8" fill="#dbeafe" stroke="#3b82f6" stroke-width="1.5"/><text x="110" y="77.5" text-anchor="middle" font-size="14" fill="#1e293b" font-family="system-ui, sans-serif">浏览器</text><rect x="230" y="55" width="140" height="45" rx="8" fill="#fef3c7" stroke="#f59e0b" stroke-width="1.5"/><text x="300" y="77.5" text-anchor="middle" font-size="14" fill="#1e293b" font-family="system-ui, sans-serif">缓存</text><rect x="420" y="55" width="140" height="45" rx="8" fill="#d1fae5" stroke="#10b981" stroke-width="1.5"/><text x="490" y="77.5" text-anchor="middle" font-size="14" fill="#1e293b" font-family="system-ui, sans-serif">服务器</text><line x1="180" y1="78" x2="228" y2="78" stroke="#94a3b8" stroke-width="1.5" marker-end="url(#arrowhead)"/><rect x="230" y="115" width="140" height="40" rx="8" fill="#fff7ed" stroke="#f97316" stroke-width="1.5"/><text x="300" y="135" text-anchor="middle" font-size="12" fill="#1e293b" font-family="system-ui, sans-serif">强缓存命中?</text><text x="230" y="170" font-size="11" fill="#22c55e" font-family="system-ui">命中 → 直接返回</text><text x="230" y="186" font-size="11" fill="#ef4444" font-family="system-ui">未命中 → 协商缓存</text><rect x="230" y="198" width="140" height="40" rx="8" fill="#fef2f2" stroke="#ef4444" stroke-width="1.5"/><text x="300" y="218" text-anchor="middle" font-size="12" fill="#1e293b" font-family="system-ui, sans-serif">协商缓存</text><line x1="370" y1="218" x2="418" y2="218" stroke="#94a3b8" stroke-width="1.5" marker-end="url(#arrowhead)"/><text x="394" y="212" text-anchor="middle" font-size="10" fill="#64748b" font-family="system-ui">If-Modified-Since
If-None-Match</text><text x="490" y="265" text-anchor="middle" font-size="11" fill="#22c55e" font-family="system-ui">304: 用缓存</text><text x="490" y="281" text-anchor="middle" font-size="11" fill="#ef4444" font-family="system-ui">200: 新资源</text>
</svg>