<svg xmlns="http://www.w3.org/2000/svg" viewBox="0 0 758 236" width="758" height="236">
<style>text { font-family: system-ui, -apple-system, sans-serif; }</style>
<text x="379" y="30" font-size="20" font-weight="700" fill="#1e293b" font-family="system-ui, sans-serif" text-anchor="middle">TypeScript 知识大纲</text><rect x="30" y="60" width="130" height="40" rx="8" fill="#dbeafe" stroke="#3b82f6" stroke-width="1.5"/><text x="95" y="80" text-anchor="middle" font-size="13" fill="#1e293b" font-family="system-ui, sans-serif">基础类型</text><rect x="172" y="60" width="130" height="40" rx="8" fill="#e0e7ff" stroke="#6366f1" stroke-width="1.5"/><text x="237" y="80" text-anchor="middle" font-size="13" fill="#1e293b" font-family="system-ui, sans-serif">接口 Interface</text><rect x="314" y="60" width="130" height="40" rx="8" fill="#ede9fe" stroke="#8b5cf6" stroke-width="1.5"/><text x="379" y="80" text-anchor="middle" font-size="13" fill="#1e293b" font-family="system-ui, sans-serif">函数类型</text><rect x="456" y="60" width="130" height="40" rx="8" fill="#fce7f3" stroke="#ec4899" stroke-width="1.5"/><text x="521" y="80" text-anchor="middle" font-size="13" fill="#1e293b" font-family="system-ui, sans-serif">泛型 Generics</text><rect x="598" y="60" width="130" height="40" rx="8" fill="#cffafe" stroke="#06b6d4" stroke-width="1.5"/><text x="663" y="80" text-anchor="middle" font-size="13" fill="#1e293b" font-family="system-ui, sans-serif">类 Class</text><rect x="30" y="112" width="130" height="40" rx="8" fill="#dbeafe" stroke="#3b82f6" stroke-width="1.5"/><text x="95" y="132" text-anchor="middle" font-size="13" fill="#1e293b" font-family="system-ui, sans-serif">枚举 Enum</text><rect x="172" y="112" width="130" height="40" rx="8" fill="#e0e7ff" stroke="#6366f1" stroke-width="1.5"/><text x="237" y="132" text-anchor="middle" font-size="13" fill="#1e293b" font-family="system-ui, sans-serif">类型推论</text><rect x="314" y="112" width="130" height="40" rx="8" fill="#ede9fe" stroke="#8b5cf6" stroke-width="1.5"/><text x="379" y="132" text-anchor="middle" font-size="13" fill="#1e293b" font-family="system-ui, sans-serif">高级类型</text><rect x="456" y="112" width="130" height="40" rx="8" fill="#fce7f3" stroke="#ec4899" stroke-width="1.5"/><text x="521" y="132" text-anchor="middle" font-size="13" fill="#1e293b" font-family="system-ui, sans-serif">命名空间</text><rect x="598" y="112" width="130" height="40" rx="8" fill="#cffafe" stroke="#06b6d4" stroke-width="1.5"/><text x="663" y="132" text-anchor="middle" font-size="13" fill="#1e293b" font-family="system-ui, sans-serif">声明合并</text><rect x="30" y="164" width="130" height="40" rx="8" fill="#dbeafe" stroke="#3b82f6" stroke-width="1.5"/><text x="95" y="184" text-anchor="middle" font-size="13" fill="#1e293b" font-family="system-ui, sans-serif">装饰器</text><rect x="172" y="164" width="130" height="40" rx="8" fill="#e0e7ff" stroke="#6366f1" stroke-width="1.5"/><text x="237" y="184" text-anchor="middle" font-size="13" fill="#1e293b" font-family="system-ui, sans-serif">Mixins</text><rect x="314" y="164" width="130" height="40" rx="8" fill="#ede9fe" stroke="#8b5cf6" stroke-width="1.5"/><text x="379" y="184" text-anchor="middle" font-size="13" fill="#1e293b" font-family="system-ui, sans-serif">声明文件</text><rect x="456" y="164" width="130" height="40" rx="8" fill="#fce7f3" stroke="#ec4899" stroke-width="1.5"/><text x="521" y="184" text-anchor="middle" font-size="13" fill="#1e293b" font-family="system-ui, sans-serif">模块解析</text><rect x="598" y="164" width="130" height="40" rx="8" fill="#cffafe" stroke="#06b6d4" stroke-width="1.5"/><text x="663" y="184" text-anchor="middle" font-size="13" fill="#1e293b" font-family="system-ui, sans-serif">tsconfig</text>
</svg>