<svg xmlns="http://www.w3.org/2000/svg" viewBox="0 0 700 260" width="700" height="260">
<style>text { font-family: system-ui, -apple-system, sans-serif; }</style>
<text x="350" y="28" font-size="18" font-weight="700" fill="#1e293b" font-family="system-ui, sans-serif" text-anchor="middle">Git 分支管理模型</text><line x1="140" y1="60" x2="660" y2="60" stroke="#ef4444" stroke-width="3" opacity="0.3"/><circle cx="140" cy="60" r="6" fill="#ef4444"/><text x="30" y="65" font-size="13" font-weight="600" fill="#ef4444" font-family="monospace">master</text><text x="670" y="64" font-size="11" fill="#64748b" font-family="system-ui">生产分支</text><circle cx="285.27087129177386" cy="60" r="5" fill="#ef4444"/><circle cx="401.95436707352343" cy="60" r="5" fill="#ef4444"/><circle cx="528.6700348603815" cy="60" r="5" fill="#ef4444"/><circle cx="655.4189176127101" cy="60" r="5" fill="#ef4444"/><line x1="140" y1="100" x2="660" y2="100" stroke="#f97316" stroke-width="3" opacity="0.3"/><circle cx="140" cy="100" r="6" fill="#f97316"/><text x="30" y="105" font-size="13" font-weight="600" fill="#f97316" font-family="monospace">hotfix</text><text x="670" y="104" font-size="11" fill="#64748b" font-family="system-ui">紧急修复</text><circle cx="288.34053832946165" cy="100" r="5" fill="#f97316"/><circle cx="391.2705699527486" cy="100" r="5" fill="#f97316"/><circle cx="491.78837534864135" cy="100" r="5" fill="#f97316"/><circle cx="652.0258660107124" cy="100" r="5" fill="#f97316"/><line x1="140" y1="140" x2="660" y2="140" stroke="#eab308" stroke-width="3" opacity="0.3"/><circle cx="140" cy="140" r="6" fill="#eab308"/><text x="30" y="145" font-size="13" font-weight="600" fill="#eab308" font-family="monospace">release</text><text x="670" y="144" font-size="11" fill="#64748b" font-family="system-ui">预发布</text><circle cx="299.29250288974174" cy="140" r="5" fill="#eab308"/><circle cx="383.5907126466249" cy="140" r="5" fill="#eab308"/><circle cx="525.9241946856417" cy="140" r="5" fill="#eab308"/><circle cx="654.8744377438095" cy="140" r="5" fill="#eab308"/><line x1="140" y1="180" x2="660" y2="180" stroke="#22c55e" stroke-width="3" opacity="0.3"/><circle cx="140" cy="180" r="6" fill="#22c55e"/><text x="30" y="185" font-size="13" font-weight="600" fill="#22c55e" font-family="monospace">develop</text><text x="670" y="184" font-size="11" fill="#64748b" font-family="system-ui">开发主线</text><circle cx="274.73441823537377" cy="180" r="5" fill="#22c55e"/><circle cx="399.9594854892643" cy="180" r="5" fill="#22c55e"/><circle cx="521.7815129950866" cy="180" r="5" fill="#22c55e"/><circle cx="666.3636114507484" cy="180" r="5" fill="#22c55e"/><line x1="140" y1="220" x2="660" y2="220" stroke="#3b82f6" stroke-width="3" opacity="0.3"/><circle cx="140" cy="220" r="6" fill="#3b82f6"/><text x="30" y="225" font-size="13" font-weight="600" fill="#3b82f6" font-family="monospace">feature</text><text x="670" y="224" font-size="11" fill="#64748b" font-family="system-ui">功能开发</text><circle cx="307.7718604060135" cy="220" r="5" fill="#3b82f6"/><circle cx="389.0227151430448" cy="220" r="5" fill="#3b82f6"/><circle cx="505.25311398125433" cy="220" r="5" fill="#3b82f6"/><circle cx="669.6406192600534" cy="220" r="5" fill="#3b82f6"/><line x1="350" y1="220" x2="350" y2="180" stroke="#3b82f6" stroke-width="1.5" stroke-dasharray="4"/><line x1="450" y1="180" x2="450" y2="140" stroke="#22c55e" stroke-width="1.5" stroke-dasharray="4"/><line x1="530" y1="140" x2="530" y2="60" stroke="#eab308" stroke-width="1.5" stroke-dasharray="4"/><line x1="300" y1="60" x2="300" y2="100" stroke="#ef4444" stroke-width="1.5" stroke-dasharray="4"/><line x1="380" y1="100" x2="380" y2="60" stroke="#f97316" stroke-width="1.5" stroke-dasharray="4"/>
</svg>