<svg xmlns="http://www.w3.org/2000/svg" viewBox="0 0 600 320" width="600" height="320">
<style>text { font-family: system-ui, -apple-system, sans-serif; }</style>
<text x="300" y="30" font-size="20" font-weight="700" fill="#1e293b" font-family="system-ui, sans-serif" text-anchor="middle">Flexbox 弹性盒子模型</text><rect x="40" y="50" width="520" height="220" rx="12" fill="none" stroke="#6366f1" stroke-width="2" stroke-dasharray="8,4"/><text x="50" y="75" font-size="12" fill="#6366f1" font-family="system-ui">flex container (display: flex)</text><line x1="60" y1="260" x2="540" y2="260" stroke="#ef4444" stroke-width="1.5" stroke-dasharray="4,4"/><polygon points="540,256 548,260 540,264" fill="#ef4444"/><text x="300" y="280" text-anchor="middle" font-size="12" fill="#ef4444" font-family="system-ui">main axis →</text><line x1="30" y1="70" x2="30" y2="250" stroke="#22c55e" stroke-width="1.5" stroke-dasharray="4,4"/><polygon points="26,250 30,258 34,250" fill="#22c55e"/><text x="18" y="165" text-anchor="middle" font-size="12" fill="#22c55e" font-family="system-ui" transform="rotate(-90,18,165)">cross axis ↓</text><rect x="70" y="95" width="110" height="140" rx="8" fill="#dbeafe" stroke="#3b82f6" stroke-width="1.5"/><text x="125" y="156.6" text-anchor="middle" font-size="14" fill="#1e293b" font-family="system-ui, sans-serif">Item 1</text><text x="125" y="174.6" text-anchor="middle" font-size="14" fill="#1e293b" font-family="system-ui, sans-serif">flex: 1</text><text x="125" y="253" text-anchor="middle" font-size="11" fill="#64748b" font-family="system-ui">flex item</text><rect x="195" y="95" width="220" height="140" rx="8" fill="#fef3c7" stroke="#f59e0b" stroke-width="1.5"/><text x="305" y="156.6" text-anchor="middle" font-size="14" fill="#1e293b" font-family="system-ui, sans-serif">Item 2</text><text x="305" y="174.6" text-anchor="middle" font-size="14" fill="#1e293b" font-family="system-ui, sans-serif">flex: 2</text><text x="305" y="253" text-anchor="middle" font-size="11" fill="#64748b" font-family="system-ui">flex item</text><rect x="430" y="95" width="110" height="140" rx="8" fill="#d1fae5" stroke="#10b981" stroke-width="1.5"/><text x="485" y="156.6" text-anchor="middle" font-size="14" fill="#1e293b" font-family="system-ui, sans-serif">Item 3</text><text x="485" y="174.6" text-anchor="middle" font-size="14" fill="#1e293b" font-family="system-ui, sans-serif">flex: 1</text><text x="485" y="253" text-anchor="middle" font-size="11" fill="#64748b" font-family="system-ui">flex item</text>
</svg>